<?xml version="1.0" ?>
<!-- Uploaded to: SVG Repo, www.svgrepo.com, Generator: SVG Repo Mixer Tools -->
<svg fill="#000000" width="800px" height="800px" viewBox="0 0 64 64" xmlns="http://www.w3.org/2000/svg">
<g id="Outline">
<g data-name="Outline" id="Outline-2">
<path d="M22,43a1,1,0,0,0,1-1V22.955h6.591a4.732,4.732,0,0,1,4.727,4.727v4.773a1,1,0,0,0,2,0V27.682a6.734,6.734,0,0,0-6.727-6.727H22a1,1,0,0,0-1,1V42A1,1,0,0,0,22,43Z"/>
<path d="M41,21.955V41H34.409a4.733,4.733,0,0,1-4.727-4.727V31.5a1,1,0,0,0-2,0v4.773A6.734,6.734,0,0,0,34.409,43H42a1,1,0,0,0,1-1V21.955a1,1,0,0,0-2,0Z"/>
<path d="M32,2A30,30,0,1,0,62,32,30.034,30.034,0,0,0,32,2Zm0,58A28,28,0,1,1,60,32,28.032,28.032,0,0,1,32,60Z"/>
<path d="M49.655,16.793a3.172,3.172,0,1,0-3.173,3.172,3.138,3.138,0,0,0,1.264-.266A19.994,19.994,0,0,1,22.691,49.707a1,1,0,1,0-.931,1.769A21.986,21.986,0,0,0,49.229,18.351,3.127,3.127,0,0,0,49.655,16.793Zm-4.344,0a1.172,1.172,0,1,1,1.171,1.172A1.172,1.172,0,0,1,45.311,16.793Z"/>
<path d="M16.793,44.035a3.157,3.157,0,0,0-.692.081A19.779,19.779,0,0,1,12,32,20.023,20.023,0,0,1,32,12a19.811,19.811,0,0,1,8.463,1.874,1,1,0,0,0,.848-1.812A21.989,21.989,0,0,0,14.39,45.16a3.141,3.141,0,0,0-.769,2.047,3.173,3.173,0,1,0,3.172-3.172Zm0,4.344a1.172,1.172,0,1,1,1.173-1.172A1.172,1.172,0,0,1,16.793,48.379Z"/>
</g>
</g>
</svg>