<!DOCTYPE svg PUBLIC "-//W3C//DTD SVG 1.1//EN" "http://www.w3.org/Graphics/SVG/1.1/DTD/svg11.dtd">

<!-- Uploaded to: SVG Repo, www.svgrepo.com, Transformed by: SVG Repo Mixer Tools -->
<svg width="800px" height="800px" viewBox="0 0 24 24" xmlns="http://www.w3.org/2000/svg" fill="#000000" transform="rotate(180)">

<g id="SVGRepo_bgCarrier" stroke-width="0"/>

<g id="SVGRepo_tracerCarrier" stroke-linecap="round" stroke-linejoin="round"/>

<g id="SVGRepo_iconCarrier"> <g> <path fill="currentColor" d="M0 0h24v24H0z"/> <path d="M4.406 14.523l3.402-3.402 2.828 2.829 3.157-3.157L12 9h5v5l-1.793-1.793-4.571 4.571-2.828-2.828-2.475 2.474a8 8 0 1 0-.927-1.9zm-1.538 1.558l-.01-.01.004-.004A9.965 9.965 0 0 1 2 12C2 6.477 6.477 2 12 2s10 4.477 10 10-4.477 10-10 10c-4.07 0-7.57-2.43-9.132-5.919z"/> </g> </g>

</svg>